<?xml version="1.0" standalone="no"?>
<!DOCTYPE svg PUBLIC "-//W3C//DTD SVG 20010904//EN"
 "http://www.w3.org/TR/2001/REC-SVG-20010904/DTD/svg10.dtd">
<svg version="1.0" xmlns="http://www.w3.org/2000/svg"
 width="1024.000000pt" height="1024.000000pt" viewBox="0 0 1024.000000 1024.000000"
 preserveAspectRatio="xMidYMid meet">

<g transform="translate(0.000000,1024.000000) scale(0.100000,-0.100000)"
fill="#000000" stroke="none">
<path d="M4460 7263 c-23 -60 -78 -202 -122 -318 -44 -115 -108 -284 -143
-375 -34 -91 -140 -365 -235 -610 -95 -245 -205 -530 -245 -635 -40 -104 -83
-215 -95 -245 -12 -30 -33 -82 -45 -115 -13 -33 -102 -265 -198 -515 -416
-1080 -442 -1150 -515 -1345 -33 -88 -72 -190 -86 -228 l-26 -67 672 2 672 3
141 375 142 375 757 0 758 0 30 -70 c16 -38 67 -171 113 -295 46 -124 98 -261
117 -305 l34 -80 673 -3 c639 -2 673 -1 666 15 -4 10 -22 59 -40 108 -18 50
-60 160 -93 245 -33 85 -99 254 -146 375 -46 121 -101 261 -121 310 -21 50
-65 164 -100 255 -34 91 -101 264 -148 385 -89 228 -413 1066 -497 1285 -27
69 -96 249 -155 400 -58 151 -134 347 -168 435 -33 88 -111 291 -172 450
l-112 290 -636 3 -635 2 -42 -107z m1125 -229 c8 -19 53 -135 101 -257 48
-122 116 -296 151 -387 36 -91 82 -210 103 -265 21 -55 93 -242 160 -415 67
-173 168 -436 225 -585 57 -148 142 -368 189 -488 108 -272 320 -819 436
-1122 48 -126 102 -264 119 -307 17 -42 31 -81 31 -88 0 -7 -31 -10 -101 -8
l-101 3 -48 125 c-114 296 -211 545 -267 685 -33 83 -93 236 -133 340 -40 105
-103 269 -141 365 -37 96 -128 333 -202 525 -75 193 -201 519 -282 725 -81
206 -178 456 -216 555 -39 99 -88 225 -111 280 -33 82 -138 353 -138 359 0 0
47 0 105 -2 l105 -3 15 -35z m-701 -31 c-14 -38 -46 -122 -71 -188 -24 -66
-99 -259 -165 -430 -66 -170 -169 -438 -230 -595 -60 -157 -161 -415 -223
-575 -63 -159 -134 -345 -159 -413 -25 -67 -94 -245 -152 -395 -172 -438 -178
-454 -248 -637 -37 -96 -98 -254 -135 -350 -38 -96 -78 -203 -91 -237 -26 -71
-29 -73 -149 -73 -75 0 -83 2 -78 18 9 30 161 426 307 802 78 201 193 498 255
660 188 490 403 1046 465 1205 32 83 105 269 161 415 56 146 141 366 189 490
48 124 100 258 115 298 l27 72 104 0 104 0 -26 -67z m454 -668 c109 -275 233
-588 275 -695 41 -107 111 -287 155 -400 85 -216 115 -296 213 -555 34 -88
128 -331 209 -540 261 -666 397 -1025 392 -1030 -3 -3 -48 -5 -99 -5 l-94 0
-28 63 c-16 34 -51 123 -79 197 -28 74 -94 248 -147 385 -54 138 -107 276
-118 307 l-22 58 -167 0 -167 0 48 -117 49 -118 -621 -3 c-341 -1 -621 -1
-623 1 -2 1 17 52 41 112 25 61 45 113 45 118 0 4 -72 7 -159 7 -118 0 -160
-3 -164 -12 -139 -349 -342 -881 -363 -950 l-15 -48 -104 0 c-58 0 -105 2
-105 5 0 3 15 44 34 92 19 49 76 196 126 328 50 132 126 330 170 440 43 110
123 317 178 460 135 352 326 843 407 1050 37 94 123 316 192 495 208 541 239
621 278 720 20 52 41 106 46 119 5 13 11 22 14 20 2 -3 93 -229 203 -504z"/>
<path d="M5127 6314 c-6 -11 -421 -1089 -592 -1539 -46 -121 -102 -266 -124
-323 -23 -56 -41 -105 -41 -107 0 -3 347 -5 770 -5 424 0 770 2 770 4 0 2 -14
37 -31 77 -18 41 -71 177 -119 304 -213 556 -603 1554 -620 1584 -4 7 -10 10
-13 5z m149 -1146 c68 -178 142 -367 163 -420 21 -54 36 -100 33 -103 -7 -7
-672 -7 -672 0 0 3 39 105 86 228 47 122 103 270 125 329 85 238 121 322 131
305 5 -9 65 -162 134 -339z"/>
</g>
</svg>
